# xmcd
#
# Track frame offsets:
#	182
#	9957
#	20560
#	27302
#	37600
#	44980
#	53340
#	64317
#	73522
#	83820
#	94052
#	107395
#	118727
#	126977
#	137112
#	144172
#	152472
#	162235
#	171630
#	175830
#	190105
#
# Disc length: 2724 seconds
#
# Revision: 1
# Processed by: cddbd v1.5PL3 Copyright (c) Steve Scherf et al.
# Submitted via: CDex 1.50Beta5
#
DISCID=140aa215
DTITLE=Katerine - Mes Mauvaises
DYEAR=1900
DGENRE=Pop -> General Pop
TTITLE0=Mon Coeur Balance
TTITLE1=Copenhague
TTITLE2=La Joueuse
TTITLE3=Le Jardin Anglais
TTITLE4=Le Manteau De Fourrure
TTITLE5=Le Jardin Botanique
TTITLE6=Le Coup De Feu
TTITLE7=Le Plus Beau Jour De Ma Vie
TTITLE8=Parlez-Vous Anglais Mr Katerine
TTITLE9=L'homme Invisible
TTITLE10=Les Grand Magasins
TTITLE11=Chanson De Jours Benis
TTITLE12=Entre Nous
TTITLE13=Les Pays Lointains
TTITLE14=Vacances A L'hopital
TTITLE15=Lorsque Je Dors
TTITLE16=Mon Coeur Balance
TTITLE17=Mon Bel Andalou
TTITLE18=Les Chats
TTITLE19=Parlez Vous Anglias Mr Katerine?
TTITLE20=Parlez Vous Francaiz Mr Footrax?
EXTD=
EXTT0=
EXTT1=
EXTT2=
EXTT3=
EXTT4=
EXTT5=
EXTT6=
EXTT7=
EXTT8=
EXTT9=
EXTT10=
EXTT11=
EXTT12=
EXTT13=
EXTT14=
EXTT15=
EXTT16=
EXTT17=
EXTT18=
EXTT19=
EXTT20=
PLAYORDER=
